# xmcd CD database file
#
# Track frame offsets:
#	150
#	23807
#	43709
#	74060
#	91711
#	118705
#	136127
#	154070
#	176406
#	203304
#	228834
#
# Disc length: 3227 seconds
#
# Revision: 1
# Processed by: cddbd v1.5.2PL0 Copyright (c) Steve Scherf et al.
# Submitted via: CDex 1.70beta2
#
DISCID=840c990b
DTITLE=HAPPY TOCO - Four of us, as always
DYEAR=1900
DGENRE=Jazz
TTITLE0=Night and Day
TTITLE1=Garota de Ipanema
TTITLE2=La Fiesta
TTITLE3=Luiza
TTITLE4=Bolero
TTITLE5=Giant Steps
TTITLE6=Englishman in New York
TTITLE7=Begin the Beguine
TTITLE8=Stairway to Heaven
TTITLE9=Csardas
TTITLE10=Chovendo na Roseira
EXTD=
EXTT0=
EXTT1=
EXTT2=
EXTT3=
EXTT4=
EXTT5=
EXTT6=
EXTT7=
EXTT8=
EXTT9=
EXTT10=
PLAYORDER=
